HIERARCHY
ROOT hips
{
	OFFSET -0.003675 0.299928 -0.021708
	CHANNELS 6 Xposition Yposition Zposition Xrotation Yrotation Zrotation
	JOINT LowerBack
	{
		OFFSET 0.000919 0.177588 0.009275
		CHANNELS 3 Xrotation Yrotation Zrotation
		JOINT spine
		{
			OFFSET 0.000919 0.177588 0.009275
			CHANNELS 3 Xrotation Yrotation Zrotation
			JOINT chest
			{
				OFFSET 0.000456 0.100015 0.004638
				CHANNELS 3 Xrotation Yrotation Zrotation
				JOINT neck
				{
					OFFSET 0.000456 0.100015 0.004638
					CHANNELS 3 Xrotation Yrotation Zrotation
					JOINT head
					{
						OFFSET 0.000924 0.155147 0.009274
						CHANNELS 6 Xposition Yposition Zposition Xrotation Yrotation Zrotation
						End Site
						{
							OFFSET 0.000000 0.153400 0.000000
						}
					}
				}
				JOINT shoulder.L
				{
					OFFSET 0.019937 0.078966 0.057518
					CHANNELS 6 Xposition Yposition Zposition Yrotation Xrotation Zrotation
					JOINT upper_arm.L
					{
						OFFSET 0.177024 -0.020465 -0.095062
						CHANNELS 6 Xposition Yposition Zposition Xrotation Yrotation Zrotation
						JOINT forearm.L
						{
							OFFSET 0.247100 -0.135500 -0.061800
							CHANNELS 3 Xrotation Yrotation Zrotation
							JOINT hand.L
							{
								OFFSET 0.217000 -0.143000 0.039300
								CHANNELS 3 Xrotation Yrotation Zrotation
								JOINT palm.01.L
								{
									OFFSET 0.021770 -0.038291 0.012954
									CHANNELS 6 Xposition Yposition Zposition Yrotation Xrotation Zrotation
									JOINT f_index.01.L
									{
										OFFSET 0.053215 -0.044137 0.008236
										CHANNELS 3 Xrotation Yrotation Zrotation
										JOINT f_index.02.L
										{
											OFFSET 0.036108 -0.024723 -0.010656
											CHANNELS 3 Xrotation Yrotation Zrotation
											JOINT f_index.03.L
											{
												OFFSET 0.021342 -0.014948 -0.010846
												CHANNELS 3 Xrotation Yrotation Zrotation
												End Site
												{
													OFFSET 0.015600 -0.009860 -0.013421
												}
											}
										}
									}
									JOINT thumb.01.L
									{
										OFFSET -0.009090 -0.002348 -0.024223
										CHANNELS 6 Xposition Yposition Zposition Xrotation Yrotation Zrotation
										JOINT thumb.02.L
										{
											OFFSET 0.019713 -0.035076 -0.011120
											CHANNELS 3 Xrotation Yrotation Zrotation
											JOINT thumb.03.L
											{
												OFFSET 0.024877 -0.021748 -0.005176
												CHANNELS 3 Xrotation Yrotation Zrotation
												End Site
												{
													OFFSET 0.016125 -0.013029 -0.001569
												}
											}
										}
									}
								}
								JOINT palm.02.L
								{
									OFFSET 0.032823 -0.025104 0.012281
									CHANNELS 6 Xposition Yposition Zposition Yrotation Xrotation Zrotation
									JOINT f_middle.01.L
									{
										OFFSET 0.055723 -0.038469 0.008037
										CHANNELS 3 Xrotation Yrotation Zrotation
										JOINT f_middle.02.L
										{
											OFFSET 0.038167 -0.027473 -0.015582
											CHANNELS 3 Xrotation Yrotation Zrotation
											JOINT f_middle.03.L
											{
												OFFSET 0.021707 -0.016587 -0.017037
												CHANNELS 3 Xrotation Yrotation Zrotation
												End Site
												{
													OFFSET 0.014112 -0.010584 -0.014294
												}
											}
										}
									}
								}
								JOINT palm.03.L
								{
									OFFSET 0.039230 -0.011402 0.008390
									CHANNELS 6 Xposition Yposition Zposition Yrotation Xrotation Zrotation
									JOINT f_ring.01.L
									{
										OFFSET 0.061796 -0.031470 0.007910
										CHANNELS 3 Xrotation Yrotation Zrotation
										JOINT f_ring.02.L
										{
											OFFSET 0.033092 -0.023401 -0.019127
											CHANNELS 3 Xrotation Yrotation Zrotation
											JOINT f_ring.03.L
											{
												OFFSET 0.021392 -0.015362 -0.017824
												CHANNELS 3 Xrotation Yrotation Zrotation
												End Site
												{
													OFFSET 0.008670 -0.007297 -0.014686
												}
											}
										}
									}
								}
								JOINT palm.04.L
								{
									OFFSET 0.043417 0.002450 0.002889
									CHANNELS 6 Xposition Yposition Zposition Yrotation Xrotation Zrotation
									JOINT f_pinky.01.L
									{
										OFFSET 0.069986 -0.026156 0.003627
										CHANNELS 3 Xrotation Yrotation Zrotation
										JOINT f_pinky.02.L
										{
											OFFSET 0.018520 -0.012813 -0.016429
											CHANNELS 3 Xrotation Yrotation Zrotation
											JOINT f_pinky.03.L
											{
												OFFSET 0.013822 -0.009796 -0.014947
												CHANNELS 3 Xrotation Yrotation Zrotation
												End Site
												{
													OFFSET 0.007238 -0.006103 -0.011657
												}
											}
										}
									}
								}
							}
						}
					}
				}
				JOINT shoulder.R
				{
					OFFSET -0.016662 0.078957 0.057696
					CHANNELS 6 Xposition Yposition Zposition Yrotation Xrotation Zrotation
					JOINT upper_arm.R
					{
						OFFSET -0.176972 -0.020537 -0.095144
						CHANNELS 6 Xposition Yposition Zposition Xrotation Yrotation Zrotation
						JOINT forearm.R
						{
							OFFSET -0.247100 -0.135500 -0.061800
							CHANNELS 3 Xrotation Yrotation Zrotation
							JOINT hand.R
							{
								OFFSET -0.217000 -0.143000 0.039300
								CHANNELS 3 Xrotation Yrotation Zrotation
								JOINT palm.01.R
								{
									OFFSET -0.021773 -0.038278 0.012988
									CHANNELS 6 Xposition Yposition Zposition Yrotation Xrotation Zrotation
									JOINT f_index.01.R
									{
										OFFSET -0.053212 -0.044139 0.008249
										CHANNELS 3 Xrotation Yrotation Zrotation
										JOINT f_index.02.R
										{
											OFFSET -0.036049 -0.024835 -0.010634
											CHANNELS 3 Xrotation Yrotation Zrotation
											JOINT f_index.03.R
											{
												OFFSET -0.021371 -0.014881 -0.010866
												CHANNELS 3 Xrotation Yrotation Zrotation
												End Site
												{
													OFFSET -0.015584 -0.009883 -0.013422
												}
											}
										}
									}
									JOINT thumb.01.R
									{
										OFFSET 0.009113 -0.002381 -0.024211
										CHANNELS 6 Xposition Yposition Zposition Xrotation Yrotation Zrotation
										JOINT thumb.02.R
										{
											OFFSET -0.019694 -0.035097 -0.011088
											CHANNELS 3 Xrotation Yrotation Zrotation
											JOINT thumb.03.R
											{
												OFFSET -0.024867 -0.021762 -0.005168
												CHANNELS 3 Xrotation Yrotation Zrotation
												End Site
												{
													OFFSET -0.016120 -0.013036 -0.001565
												}
											}
										}
									}
								}
								JOINT palm.02.R
								{
									OFFSET -0.032828 -0.025095 0.012286
									CHANNELS 6 Xposition Yposition Zposition Yrotation Xrotation Zrotation
									JOINT f_middle.01.R
									{
										OFFSET -0.055721 -0.038472 0.008040
										CHANNELS 3 Xrotation Yrotation Zrotation
										JOINT f_middle.02.R
										{
											OFFSET -0.038101 -0.027593 -0.015557
											CHANNELS 3 Xrotation Yrotation Zrotation
											JOINT f_middle.03.R
											{
												OFFSET -0.021730 -0.016530 -0.017054
												CHANNELS 3 Xrotation Yrotation Zrotation
												End Site
												{
													OFFSET -0.014096 -0.010608 -0.014293
												}
											}
										}
									}
								}
								JOINT palm.03.R
								{
									OFFSET -0.039192 -0.011488 0.008390
									CHANNELS 6 Xposition Yposition Zposition Yrotation Xrotation Zrotation
									JOINT f_ring.01.R
									{
										OFFSET -0.061839 -0.031387 0.007876
										CHANNELS 3 Xrotation Yrotation Zrotation
										JOINT f_ring.02.R
										{
											OFFSET -0.033068 -0.023437 -0.019125
											CHANNELS 3 Xrotation Yrotation Zrotation
											JOINT f_ring.03.R
											{
												OFFSET -0.021371 -0.015393 -0.017822
												CHANNELS 3 Xrotation Yrotation Zrotation
												End Site
												{
													OFFSET -0.008654 -0.007321 -0.014684
												}
											}
										}
									}
								}
								JOINT palm.04.R
								{
									OFFSET -0.043421 0.002443 0.002845
									CHANNELS 6 Xposition Yposition Zposition Yrotation Xrotation Zrotation
									JOINT f_pinky.01.R
									{
										OFFSET -0.069983 -0.026169 0.003599
										CHANNELS 3 Xrotation Yrotation Zrotation
										JOINT f_pinky.02.R
										{
											OFFSET -0.018501 -0.012842 -0.016428
											CHANNELS 3 Xrotation Yrotation Zrotation
											JOINT f_pinky.03.R
											{
												OFFSET -0.013806 -0.009821 -0.014946
												CHANNELS 3 Xrotation Yrotation Zrotation
												End Site
												{
													OFFSET -0.007226 -0.006121 -0.011655
												}
											}
										}
									}
								}
							}
						}
					}
				}
			}
		}
	}
	JOINT pelvis.L
	{
		OFFSET 0.000000 0.000000 0.000000
		CHANNELS 6 Xposition Yposition Zposition Xrotation Yrotation Zrotation
		JOINT thigh.L
		{
			OFFSET 0.101675 0.001054 -0.000000
			CHANNELS 3 Xrotation Yrotation Zrotation
			JOINT shin.L
			{
				OFFSET 0.000000 -0.534800 0.041000
				CHANNELS 3 Xrotation Yrotation Zrotation
				JOINT foot.L
				{
					OFFSET 0.000000 -0.452000 -0.044800
					CHANNELS 3 Xrotation Yrotation Zrotation
					JOINT toe.L
					{
						OFFSET -0.000000 -0.068500 0.109600
						CHANNELS 3 Xrotation Yrotation Zrotation
						End Site
						{
							OFFSET -0.000000 0.000000 0.067200
						}
					}
				}
				JOINT heel.L
				{
					OFFSET 0.000000 -0.452000 -0.044800
					CHANNELS 3 Xrotation Yrotation Zrotation
					JOINT heel.02.L
					{
						OFFSET -0.038000 -0.085200 0.016200
						CHANNELS 6 Xposition Yposition Zposition Xrotation Yrotation Zrotation
						End Site
						{
							OFFSET 0.080000 -0.000000 0.000000
						}
					}
				}
			}
		}
	}
	JOINT pelvis.R
	{
		OFFSET 0.000000 0.000000 0.000000
		CHANNELS 6 Xposition Yposition Zposition Xrotation Yrotation Zrotation
		JOINT thigh.R
		{
			OFFSET -0.094325 0.001054 0.000000
			CHANNELS 3 Xrotation Yrotation Zrotation
			JOINT shin.R
			{
				OFFSET 0.000000 -0.534800 0.041000
				CHANNELS 3 Xrotation Yrotation Zrotation
				JOINT foot.R
				{
					OFFSET 0.000000 -0.452000 -0.044800
					CHANNELS 3 Xrotation Yrotation Zrotation
					JOINT toe.R
					{
						OFFSET -0.000000 -0.068500 0.109600
						CHANNELS 3 Xrotation Yrotation Zrotation
						End Site
						{
							OFFSET -0.000000 0.000000 0.067200
						}
					}
				}
				JOINT heel.R
				{
					OFFSET 0.000000 -0.452000 -0.044800
					CHANNELS 3 Xrotation Yrotation Zrotation
					JOINT heel.02.R
					{
						OFFSET 0.038000 -0.085200 0.016200
						CHANNELS 6 Xposition Yposition Zposition Xrotation Yrotation Zrotation
						End Site
						{
							OFFSET -0.080000 0.000000 -0.000000
						}
					}
				}
			}
		}
	}
}
MOTION
Frames: 4
Frame Time: 0.041667
-0.002236 0.221584 0.004359 -9.584244 4.192337 93.445396 -0.000001 0.000000 -0.000001 0.000001 -0.000001 -0.000000 0.000000 -0.000001 -0.000000 0.000001 -0.000000 0.000000 0.000924 0.155148 0.009274 -12.413985 0.026294 -18.859407 0.019937 0.078966 0.057518 -4.814300 7.440736 48.832929 0.177024 -0.020465 -0.095062 -47.740423 -12.224592 -29.530429 31.568509 -21.979764 87.609682 -0.000003 0.000005 0.000002 0.021770 -0.038291 0.012954 -0.000001 0.000002 -0.000004 0.000003 -0.000001 0.000006 0.000001 -0.000006 0.000006 0.000001 -0.000000 0.000002 -0.009090 -0.002348 -0.024224 -0.000000 0.000001 0.000004 0.000003 -0.000001 -0.000001 0.000003 0.000001 0.000003 0.032823 -0.025104 0.012281 0.000001 -0.000002 0.000002 0.000000 0.000006 -0.000003 -0.000005 -0.000003 0.000008 0.000002 -0.000006 0.000002 0.039230 -0.011402 0.008390 0.000000 0.000002 0.000003 0.000000 0.000000 -0.000000 0.000001 -0.000000 0.000003 0.000005 -0.000003 0.000003 0.043417 0.002450 0.002889 -0.000001 0.000004 -0.000004 -0.000000 -0.000001 -0.000000 0.000001 0.000001 0.000001 0.000001 0.000001 -0.000001 -0.016662 0.078957 0.057696 -6.216588 7.022328 -41.252888 -0.176972 -0.020537 -0.095144 -27.844113 1.139578 31.339616 34.452328 3.501579 -105.931173 0.000001 -0.000001 0.000002 -0.021773 -0.038278 0.012988 0.000002 -0.000003 -0.000003 -0.000002 -0.000000 0.000002 -0.000001 0.000001 -0.000004 0.000000 -0.000002 0.000008 0.009114 -0.002381 -0.024212 0.000001 -0.000001 -0.000001 -0.000000 -0.000000 0.000000 0.000003 0.000001 -0.000003 -0.032828 -0.025095 0.012286 0.000001 -0.000003 0.000001 -0.000002 0.000003 0.000002 0.000001 0.000001 0.000001 -0.000001 0.000005 -0.000004 -0.039192 -0.011488 0.008390 0.000003 -0.000003 0.000001 0.000002 0.000005 -0.000005 -0.000001 -0.000001 0.000002 -0.000001 -0.000000 0.000000 -0.043421 0.002443 0.002845 -0.000001 -0.000001 -0.000001 0.000000 0.000003 0.000001 -0.000004 -0.000007 0.000002 -0.000003 0.000001 -0.000002 -0.000000 0.000000 0.000000 -1.630280 -0.373880 3.610762 47.953761 0.141891 -0.353225 14.989634 -0.735571 7.444688 0.000002 0.000000 -0.000001 0.000001 0.000001 0.000000 0.000005 0.000001 0.000001 -0.038000 -0.085200 0.016200 -0.000000 -0.000000 0.000000 -0.000000 0.000000 0.000000 -1.606694 -0.372144 4.845104 41.650555 0.295035 6.262609 27.555048 -0.629524 6.365354 0.000000 0.000000 -0.000000 0.000004 0.000000 0.000000 0.000005 0.000000 0.000001 0.038000 -0.085200 0.016200 -0.000000 0.000000 0.000000 
-0.002700 0.224530 0.003855 -22.108387 4.460505 95.398529 0.000000 -0.000001 -0.000000 -0.000000 -0.000003 0.000000 -0.000000 -0.000003 -0.000000 0.000000 -0.000003 -0.000000 0.000924 0.155148 0.009274 -9.993618 0.010265 -22.984925 0.019937 0.078966 0.057518 -16.607282 7.936301 51.445477 0.177024 -0.020465 -0.095062 -45.189153 -5.561706 -33.056196 48.557348 -6.494621 109.724503 -0.000000 -0.000005 -0.000005 0.021770 -0.038291 0.012954 0.000005 -0.000002 0.000006 -0.000003 -0.000001 -0.000002 -0.000000 -0.000004 0.000008 -0.000001 0.000001 0.000002 -0.009090 -0.002348 -0.024223 -0.000003 -0.000002 -0.000003 0.000003 0.000004 -0.000000 0.000000 -0.000000 -0.000002 0.032823 -0.025104 0.012281 0.000001 -0.000005 0.000004 -0.000006 0.000000 -0.000005 -0.000005 0.000002 -0.000000 -0.000000 -0.000003 0.000000 0.039230 -0.011402 0.008390 0.000005 -0.000004 0.000006 -0.000001 -0.000000 -0.000000 -0.000003 0.000005 0.000003 0.000003 -0.000001 -0.000002 0.043417 0.002449 0.002889 0.000003 -0.000001 0.000002 0.000003 -0.000003 -0.000000 0.000003 0.000001 -0.000003 0.000005 -0.000004 -0.000004 -0.016662 0.078956 0.057696 -15.068813 7.500680 -36.957546 -0.176972 -0.020537 -0.095144 -26.678034 2.056066 29.954696 36.515141 -6.394027 -116.287276 0.000001 0.000002 0.000003 -0.021773 -0.038278 0.012988 0.000001 -0.000002 0.000002 0.000000 0.000003 -0.000003 -0.000000 -0.000001 -0.000010 -0.000003 0.000004 0.000003 0.009114 -0.002381 -0.024212 0.000002 -0.000002 0.000001 -0.000001 -0.000002 0.000002 -0.000002 0.000003 -0.000003 -0.032828 -0.025095 0.012286 -0.000000 0.000001 0.000001 0.000001 0.000002 -0.000004 -0.000003 -0.000001 -0.000002 -0.000002 0.000003 -0.000004 -0.039192 -0.011488 0.008390 -0.000001 0.000001 0.000003 -0.000002 0.000003 0.000000 -0.000002 -0.000003 0.000003 -0.000002 -0.000003 -0.000002 -0.043421 0.002442 0.002845 -0.000001 0.000002 0.000000 -0.000002 0.000004 -0.000002 -0.000001 0.000001 -0.000003 0.000001 0.000000 0.000004 -0.000000 0.000000 -0.000000 -1.635629 -0.648763 6.966895 43.260810 0.461017 3.999618 16.199672 -1.374014 14.006514 0.000000 -0.000001 -0.000001 -0.000002 0.000002 0.000000 0.000003 0.000001 -0.000001 -0.038000 -0.085200 0.016200 0.000002 -0.000001 -0.000000 0.000000 0.000000 -0.000000 -1.620162 -0.646709 8.201251 40.819946 0.646797 10.872877 24.504408 -1.208580 12.290108 0.000005 -0.000001 0.000001 -0.000001 -0.000001 0.000001 0.000002 -0.000001 -0.000001 0.038000 -0.085200 0.016200 -0.000002 -0.000002 -0.000001 
-0.002500 0.223953 0.003328 -22.992368 5.284729 95.287983 -0.000001 -0.000000 -0.000000 0.000000 -0.000001 0.000001 0.000000 -0.000001 -0.000001 0.000000 -0.000002 -0.000000 0.000924 0.155148 0.009274 -11.529217 0.014770 -23.159426 0.019937 0.078966 0.057518 -16.718317 8.533841 53.935436 0.177024 -0.020465 -0.095062 -38.896742 -4.312351 -31.112075 38.791643 -6.991534 104.088306 -0.000003 -0.000003 0.000002 0.021770 -0.038291 0.012954 0.000001 0.000002 0.000001 -0.000003 -0.000006 -0.000001 0.000003 0.000006 0.000006 0.000001 0.000002 -0.000001 -0.009090 -0.002348 -0.024224 -0.000003 -0.000005 -0.000003 -0.000000 -0.000001 -0.000001 0.000002 0.000001 -0.000002 0.032823 -0.025104 0.012281 -0.000001 -0.000000 0.000005 0.000000 -0.000001 -0.000004 -0.000004 -0.000000 -0.000000 -0.000004 0.000002 -0.000000 0.039230 -0.011402 0.008390 0.000001 0.000002 0.000004 -0.000004 0.000003 -0.000002 -0.000003 0.000005 0.000004 0.000003 -0.000003 0.000002 0.043417 0.002449 0.002889 -0.000000 0.000002 -0.000002 0.000000 -0.000003 0.000001 -0.000001 -0.000003 -0.000000 -0.000000 -0.000003 -0.000001 -0.016662 0.078956 0.057696 -19.474194 8.699147 -37.920585 -0.176972 -0.020537 -0.095144 -30.551173 5.948500 27.822395 35.858876 -4.861344 -114.267207 0.000001 0.000000 0.000000 -0.021773 -0.038278 0.012988 -0.000001 -0.000003 -0.000003 0.000000 0.000003 -0.000006 -0.000000 -0.000002 -0.000005 0.000002 -0.000002 0.000003 0.009114 -0.002381 -0.024211 -0.000002 -0.000000 -0.000003 -0.000002 -0.000001 -0.000001 -0.000001 0.000000 0.000003 -0.032828 -0.025095 0.012286 0.000001 -0.000000 -0.000001 0.000004 0.000001 -0.000005 0.000001 -0.000001 0.000001 -0.000001 0.000006 -0.000005 -0.039192 -0.011488 0.008390 -0.000001 0.000003 -0.000000 -0.000000 0.000006 -0.000003 0.000002 -0.000003 0.000003 0.000002 0.000002 -0.000003 -0.043421 0.002443 0.002845 0.000001 0.000002 -0.000003 -0.000002 0.000006 0.000001 0.000000 -0.000004 -0.000002 0.000001 0.000005 -0.000002 -0.000000 0.000000 0.000000 -1.609014 -0.674963 7.330230 41.169457 0.482716 4.394797 15.044554 -1.169927 11.892421 0.000000 0.000001 0.000000 -0.000002 -0.000001 0.000001 0.000003 -0.000000 0.000001 -0.038000 -0.085200 0.016200 -0.000003 0.000000 -0.000000 -0.000000 0.000000 0.000000 -1.594731 -0.672981 8.564587 39.352907 0.664557 11.007562 22.756394 -1.121426 11.391307 0.000000 -0.000004 -0.000001 0.000001 -0.000003 -0.000001 0.000002 -0.000002 0.000001 0.038000 -0.085200 0.016200 -0.000002 -0.000001 0.000002 
-0.002879 0.221826 0.003690 -19.466563 5.452654 93.766770 -0.000000 -0.000001 0.000000 -0.000001 -0.000003 0.000000 0.000000 -0.000001 -0.000000 0.000001 -0.000000 -0.000000 0.000924 0.155147 0.009274 -9.958807 0.013971 -21.248567 0.019937 0.078966 0.057518 -13.517447 8.186808 54.579273 0.177025 -0.020465 -0.095062 -38.803954 -15.367021 -21.441803 19.007279 -15.995854 75.835693 0.000001 -0.000000 0.000001 0.021770 -0.038291 0.012954 0.000001 0.000007 -0.000001 0.000001 -0.000003 0.000001 -0.000001 -0.000002 0.000008 0.000002 0.000005 -0.000003 -0.009090 -0.002348 -0.024224 0.000001 -0.000004 0.000000 0.000001 0.000001 -0.000002 -0.000003 -0.000003 -0.000001 0.032823 -0.025104 0.012281 0.000004 0.000006 0.000004 0.000003 -0.000004 -0.000004 -0.000004 -0.000001 0.000001 0.000002 -0.000003 0.000003 0.039230 -0.011402 0.008390 0.000002 0.000002 0.000001 0.000005 -0.000003 -0.000002 0.000001 0.000002 0.000003 -0.000001 0.000000 0.000002 0.043417 0.002450 0.002889 0.000001 0.000005 -0.000002 -0.000005 -0.000004 0.000003 0.000000 0.000003 -0.000000 -0.000001 0.000000 -0.000000 -0.016662 0.078957 0.057696 -18.810838 8.561898 -39.397108 -0.176972 -0.020537 -0.095144 -29.764397 12.803837 19.153973 29.764547 2.260374 -103.776836 0.000003 0.000000 0.000006 -0.021773 -0.038278 0.012988 0.000002 -0.000001 -0.000002 -0.000001 0.000003 -0.000006 -0.000001 -0.000000 -0.000003 -0.000002 -0.000005 0.000005 0.009114 -0.002381 -0.024212 0.000000 0.000000 -0.000003 -0.000002 -0.000001 0.000002 0.000002 0.000000 -0.000001 -0.032828 -0.025095 0.012286 0.000002 -0.000004 0.000001 -0.000003 -0.000002 -0.000003 0.000002 0.000003 -0.000005 -0.000006 -0.000002 -0.000003 -0.039192 -0.011488 0.008390 0.000003 -0.000001 0.000001 -0.000001 0.000004 -0.000005 0.000001 -0.000000 -0.000000 -0.000001 0.000002 -0.000002 -0.043421 0.002443 0.002845 0.000001 -0.000000 0.000002 0.000002 0.000004 0.000001 -0.000005 -0.000003 0.000000 -0.000001 0.000005 -0.000001 0.000000 0.000000 0.000000 -1.665502 -0.608919 6.437299 42.205221 0.485831 4.388756 14.521301 -1.005239 10.198839 0.000000 -0.000001 -0.000001 0.000004 0.000004 0.000001 0.000002 -0.000002 -0.000002 -0.038000 -0.085200 0.016200 -0.000001 0.000001 0.000000 0.000000 0.000000 0.000000 -1.648382 -0.606812 7.671669 39.265077 0.589618 10.007032 21.660089 -0.968945 9.825517 0.000000 0.000001 0.000001 0.000001 0.000002 0.000000 0.000005 0.000001 0.000002 0.038000 -0.085200 0.016200 -0.000001 0.000001 -0.000000 
